<svg width="640" height="520" viewBox="0 0 640 520" fill="none" xmlns="http://www.w3.org/2000/svg">
  <rect width="640" height="520" rx="24" fill="#0A120D"/>
  <rect x="20" y="20" width="600" height="480" rx="18" stroke="#00E676" stroke-opacity="0.45" stroke-width="2"/>
  <circle cx="510" cy="110" r="48" fill="#00E676" fill-opacity="0.15"/>
  <circle cx="510" cy="110" r="70" stroke="#00E676" stroke-opacity="0.25" stroke-width="2"/>
  <path d="M148 403H500" stroke="#00E676" stroke-opacity="0.35" stroke-width="4"/>
  <rect x="166" y="155" width="312" height="226" rx="20" fill="#111A14" stroke="#00E676" stroke-opacity="0.4" stroke-width="2"/>
  <path d="M220 185H424" stroke="#1FFF93" stroke-opacity="0.6" stroke-width="3"/>
  <rect x="210" y="212" width="224" height="92" rx="10" fill="#09100B" stroke="#00E676" stroke-opacity="0.35"/>
  <path d="M236 238H408" stroke="#00E676" stroke-opacity="0.45" stroke-width="2"/>
  <path d="M236 258H388" stroke="#00E676" stroke-opacity="0.35" stroke-width="2"/>
  <path d="M236 278H360" stroke="#00E676" stroke-opacity="0.28" stroke-width="2"/>
  <ellipse cx="322" cy="346" rx="52" ry="16" fill="#00E676" fill-opacity="0.22"/>
  <path d="M270 346C274.5 336.5 285.7 328 322 328C358.3 328 369.5 336.5 374 346" stroke="#1FFF93" stroke-width="3"/>
  <circle cx="120" cy="96" r="16" fill="#00E676" fill-opacity="0.45"/>
  <circle cx="94" cy="130" r="7" fill="#00E676" fill-opacity="0.6"/>
  <circle cx="535" cy="390" r="13" fill="#00E676" fill-opacity="0.45"/>
  <path d="M91 454L136 406L171 454" stroke="#00E676" stroke-opacity="0.6" stroke-width="4"/>
  <text x="320" y="468" text-anchor="middle" fill="#1FFF93" font-size="28" font-family="Orbitron, Arial, sans-serif">DEVQUEENS</text>
</svg>