<svg width="220" height="220" viewBox="0 0 220 220" fill="none" xmlns="http://www.w3.org/2000/svg">
  <rect width="220" height="220" rx="18" fill="#151D1A"/>
  <rect x="10" y="10" width="200" height="200" rx="14" stroke="#7AD4AD" stroke-opacity="0.35"/>
  <circle cx="110" cy="86" r="36" fill="#25322C"/>
  <path d="M78 84C78 66 92 52 110 52C128 52 142 66 142 84" stroke="#7AD4AD" stroke-width="5"/>
  <circle cx="96" cy="86" r="4" fill="#E9F5EF"/>
  <circle cx="124" cy="86" r="4" fill="#E9F5EF"/>
  <path d="M98 103C101 107 105 109 110 109C115 109 119 107 122 103" stroke="#E9F5EF" stroke-width="3" stroke-linecap="round"/>
  <rect x="60" y="126" width="100" height="58" rx="11" fill="#202A25" stroke="#7AD4AD" stroke-opacity="0.45"/>
  <path d="M75 144H145" stroke="#7AD4AD" stroke-width="3"/>
  <path d="M75 156H131" stroke="#7AD4AD" stroke-opacity="0.7" stroke-width="3"/>
  <text x="110" y="202" text-anchor="middle" fill="#B7C9BF" font-size="14" font-family="Inter, Arial">AI Coder</text>
</svg>