<svg width="220" height="220" viewBox="0 0 220 220" fill="none" xmlns="http://www.w3.org/2000/svg">
  <rect width="220" height="220" rx="18" fill="#151D1A"/>
  <rect x="10" y="10" width="200" height="200" rx="14" stroke="#7AD4AD" stroke-opacity="0.35"/>
  <circle cx="110" cy="84" r="34" fill="#25322C"/>
  <path d="M76 82C76 66 90 53 110 53C130 53 144 66 144 82" stroke="#7AD4AD" stroke-width="5"/>
  <circle cx="97" cy="85" r="4" fill="#E9F5EF"/>
  <circle cx="123" cy="85" r="4" fill="#E9F5EF"/>
  <path d="M102 102C105 105 115 105 118 102" stroke="#E9F5EF" stroke-width="3" stroke-linecap="round"/>
  <rect x="84" y="122" width="18" height="34" rx="9" fill="#7AD4AD"/>
  <rect x="118" y="122" width="18" height="34" rx="9" fill="#7AD4AD"/>
  <path d="M72 170C78 157 94 150 110 150C126 150 142 157 148 170" stroke="#7AD4AD" stroke-opacity="0.75" stroke-width="4"/>
  <text x="110" y="202" text-anchor="middle" fill="#B7C9BF" font-size="14" font-family="Inter, Arial">Voice Ninja</text>
</svg>